<?xml version="1.0" encoding="UTF-8"?><svg id="a" xmlns="http://www.w3.org/2000/svg" viewBox="0 0 160 160"><defs><style>.c{fill:#af7045;}.d{fill:#1b8040;}</style></defs><g id="b"><path class="d" d="m102.94,151.03h-45.88c-8.17,0-14.85-6.68-14.85-14.85l8-65.35c0-8.17,6.68-14.85,14.85-14.85h28.88c8.17,0,14.06,6.36,14.85,14.85l9,65.35c0,8.17-6.68,14.85-14.85,14.85Z"/><path class="d" d="m81.87,93.25h-3.73c-8.17,0-14.85-6.68-14.85-14.85V23.09c0-8.17,6.68-4.37,14.85-4.37h3.73c8.17,0,14.85-3.79,14.85,4.37v55.31c0,8.17-6.68,14.85-14.85,14.85Z"/><rect class="c" x="60.89" y="8.97" width="38.22" height="13.29" rx="6.65" ry="6.65"/></g></svg>