<?xml version="1.0" encoding="UTF-8"?><svg id="a" xmlns="http://www.w3.org/2000/svg" viewBox="0 0 75.5 142"><defs><style>.b{fill:#af7045;}.c{fill:#197f36;}</style></defs><path class="c" d="m66.7,61.8c-.7-7.5-5.4-13.3-12.1-14.6V14.1c0-8.2-6.7-4.4-14.9-4.4h-3.7c-8.2,0-14.9-3.8-14.9,4.4v33c-7.3.9-13.1,7.2-13.1,14.7L0,127.2c0,8.2,6.7,14.8,14.8,14.8h45.9c8.2,0,14.8-6.7,14.8-14.8l-8.8-65.4Z"/><path class="b" d="m25.4,0h24.9c3.7,0,6.7,3,6.7,6.6h0c0,3.7-3,6.6-6.7,6.6h-24.9c-3.7,0-6.7-3-6.7-6.6h0c.1-3.7,3.1-6.6,6.7-6.6Z"/></svg>