<?xml version="1.0" encoding="UTF-8"?><svg id="a" xmlns="http://www.w3.org/2000/svg" viewBox="0 0 110.5 139.5"><defs><style>.b{fill:#eee8e7;}.c{fill:snow;}</style></defs><path class="b" d="m110.2,55C110.2,24.6,85.5,0,55.2,0S.2,24.7.2,55l-.2,70.7c0,7.6,6.2,13.8,13.8,13.8s13.2-5.7,13.8-12.8c.5,7.2,6.5,12.8,13.8,12.8s13.2-5.7,13.8-12.8c.5,7.2,6.5,12.8,13.8,12.8s13.2-5.7,13.8-12.8c.5,7.2,6.5,12.8,13.8,12.8s13.8-6.2,13.8-13.8l.1-70.7h-.3Z"/><circle class="c" cx="37.4" cy="49" r="8.3"/><circle class="c" cx="73" cy="49" r="8.3"/></svg>