<?xml version="1.0" encoding="UTF-8"?><svg id="a" xmlns="http://www.w3.org/2000/svg" viewBox="0 0 110 137.9"><defs><style>.b{fill:#eee8e7;}.c{fill:#4c5aa8;}</style></defs><path class="c" d="m14.9,0h80.3c8.2,0,14.8,6.6,14.8,14.8v108.2c0,8.2-6.6,14.9-14.8,14.9H14.9c-8.2,0-14.9-6.6-14.9-14.9V14.8C.1,6.6,6.7,0,14.9,0Z"/><path class="b" d="m24.1,26.8h53.2c3.3,0,6,2.7,6,6h0c0,3.3-2.7,6-6,6H24.1c-3.3,0-6-2.7-6-6h0c0-3.3,2.7-6,6-6Z"/><path class="b" d="m24.1,50.9h38.1c3.3,0,6,2.7,6,6h0c0,3.3-2.7,6-6,6H24.1c-3.3,0-6-2.7-6-6h0c0-3.3,2.7-6,6-6Z"/></svg>