<?xml version="1.0" encoding="UTF-8"?><svg id="a" xmlns="http://www.w3.org/2000/svg" viewBox="0 0 151.8 121.6"><defs><style>.b{fill:snow;}.c{fill:#747484;}</style></defs><path class="c" d="m151.8,31c0-17.1-13.9-31-31-31-15.9,0-29,12-30.8,27.4-4.5-1.4-9.2-2.1-14.1-2.1s-9.6.7-14.1,2.1C60,12,46.9,0,31,0,13.9,0,0,13.9,0,31s12.9,30,29.2,31c-.9,3.7-1.4,7.5-1.4,11.4,0,26.6,21.6,48.2,48.2,48.2s48.2-21.6,48.2-48.2c0-3.9-.5-7.8-1.4-11.4,16.1-1,29-14.5,29-31Z"/><circle class="b" cx="58.1" cy="66" r="8.3"/><circle class="b" cx="93.7" cy="66" r="8.3"/></svg>