<?xml version="1.0" encoding="UTF-8"?><svg id="a" xmlns="http://www.w3.org/2000/svg" viewBox="0 0 160 160"><defs><style>.c{fill:#be2129;}.d{fill:#de1f26;}</style></defs><g id="b"><rect class="d" x="24.67" y="85.48" width="31.04" height="65.2" rx="14.85" ry="14.85"/><rect class="d" x="103.67" y="85.48" width="31.04" height="65.2" rx="14.85" ry="14.85"/><rect class="d" x="24.99" y="9.31" width="110.03" height="91.16" rx="14.85" ry="14.85"/><path class="c" d="m155.98,67.11c0-8.17-6.68-14.85-14.85-14.85h-1.34c-8.17,0-14.85,6.68-14.85,14.85l-.16,30.55H35.06v-30.55c0-8.17-6.68-14.85-14.85-14.85h-1.34c-8.17,0-14.85,6.68-14.85,14.85v24.21c-.03.39-.06.78-.06,1.18v22.48c0,8.17,6.68,14.85,14.85,14.85h122.38c8.17,0,14.85-6.68,14.85-14.85,0,0-.06-10.8-.06-12.38v-35.5Z"/></g></svg>