<?xml version="1.0" encoding="UTF-8"?><svg id="a" xmlns="http://www.w3.org/2000/svg" viewBox="0 0 160 160"><defs><style>.d{fill:#eee8e7;}.e{fill:snow;}</style></defs><g id="b"><g id="c"><path class="d" d="m80,9.31h0c30.36,0,55.01,24.65,55.01,55.01v51.29c0,8.2-6.65,14.85-14.85,14.85H39.84c-8.2,0-14.85-6.65-14.85-14.85v-51.29c0-30.36,24.65-55.01,55.01-55.01Z"/></g><rect class="d" x="24.82" y="90.78" width="27.6" height="57.98" rx="13.8" ry="13.8"/><rect class="d" x="52.32" y="90.78" width="27.6" height="57.98" rx="13.8" ry="13.8"/><rect class="d" x="79.82" y="90.78" width="27.6" height="57.98" rx="13.8" ry="13.8"/><rect class="d" x="107.32" y="90.78" width="27.6" height="57.98" rx="13.8" ry="13.8"/><circle class="e" cx="62.19" cy="58.29" r="8.31"/><circle class="e" cx="97.81" cy="58.29" r="8.31"/></g></svg>