<?xml version="1.0" encoding="UTF-8"?><svg id="a" xmlns="http://www.w3.org/2000/svg" viewBox="0 0 152.2 141.4"><defs><style>.e{fill:#de1f26;}.f{isolation:isolate;opacity:.17;}</style></defs><path id="b" class="e" d="m131,14.8C131,6.6,124.4,0,116.1,0H35.8c-8.2-.1-14.8,6.6-14.8,14.8l-.3,111.7c0,8.2,6.6,14.9,14.9,14.9h1.3c8.2,0,14.9-6.6,14.9-14.9v-35.4h48v35.4c0,8.2,6.6,14.9,14.9,14.9h1.3c8.2,0,14.9-6.6,14.9-14.9,0,0,.1-111.7.1-111.7Z"/><path id="c" class="e" d="m152,57.7c0-8.2-6.7-14.8-14.9-14.8h-1.3c-8.2,0-14.8,6.7-14.8,14.8l-.2,30.6H31.1v-30.6c0-8.2-6.7-14.8-14.9-14.8h-1.3c-8.2,0-14.9,6.6-14.9,14.8v47.9c0,8.2,6.7,14.9,14.9,14.9h122.4c8.2,0,14.9-6.7,14.9-14.8,0,0-.1-10.8-.1-12.4l-.1-35.6h0Z"/><path id="d" class="f" d="m152,57.7c0-8.2-6.7-14.8-14.9-14.8h-1.3c-8.2,0-14.8,6.7-14.8,14.8l-.2,30.6H31.1v-30.6c0-8.2-6.7-14.8-14.9-14.8h-1.3c-8.2,0-14.9,6.6-14.9,14.8v47.9c0,8.2,6.7,14.9,14.9,14.9h122.4c8.2,0,14.9-6.7,14.9-14.8,0,0-.1-10.8-.1-12.4l-.1-35.6h0Z"/></svg>